<svg xmlns="http://www.w3.org/2000/svg" viewBox="0 0 512 512" role="img" aria-label="Ma conciergerie annuaire">
  <rect width="512" height="512" rx="96" fill="#ffffff"/>
  <!-- House -->
  <path d="M86 210 L170 130 L254 210 Z" fill="#1e5ea9" stroke="#0f3e7a" stroke-width="14" stroke-linejoin="round"/>
  <rect x="96" y="210" width="148" height="142" rx="18" fill="#ffffff" stroke="#0f3e7a" stroke-width="14"/>
  <rect x="182" y="260" width="34" height="34" rx="6" fill="#0f3e7a"/>

  <!-- Bell -->
  <circle cx="250" cy="330" r="66" fill="#d4a83a" stroke="#9a6e12" stroke-width="14"/>
  <ellipse cx="250" cy="380" rx="70" ry="26" fill="#0f3e7a" opacity="0.95"/>

  <!-- Pin -->
  <circle cx="360" cy="250" r="62" fill="#f05a28"/>
  <path d="M320 286 L400 286 L360 392 Z" fill="#f05a28"/>
  <circle cx="360" cy="250" r="26" fill="#ffffff"/>

  <!-- Palm hint -->
  <path d="M438 138c-20 8-34 24-40 44" fill="none" stroke="#38a169" stroke-width="12" stroke-linecap="round"/>
  <path d="M446 158c-22 4-40 16-50 34" fill="none" stroke="#38a169" stroke-width="12" stroke-linecap="round"/>
  <path d="M446 182c-20-6-40-2-58 10" fill="none" stroke="#38a169" stroke-width="12" stroke-linecap="round"/>
</svg>
