<svg xmlns="http://www.w3.org/2000/svg" width="96" height="96" viewBox="0 0 96 96" fill="none">
  <rect x="6" y="6" width="84" height="84" rx="18" fill="#0B1020" opacity="0.08"/>
  <rect x="6" y="6" width="84" height="84" rx="18" stroke="#0B1020" stroke-opacity="0.12"/>
  <path d="M30 50c0-10 8-18 18-18s18 8 18 18-8 18-18 18-18-8-18-18Z" fill="#2563EB" fill-opacity="0.18"/>
  <path d="M48 36c7.7 0 14 6.3 14 14s-6.3 14-14 14-14-6.3-14-14 6.3-14 14-14Z" stroke="#2563EB" stroke-width="3"/>
  <path d="M54 58.5 48 64 42 58.5" stroke="#0B1020" stroke-opacity="0.55" stroke-width="3" stroke-linecap="round" stroke-linejoin="round"/>
  <path d="M44 50.5h8" stroke="#0B1020" stroke-opacity="0.55" stroke-width="3" stroke-linecap="round"/>
</svg>
